<svg xmlns="http://www.w3.org/2000/svg" width="185.595" height="284.473" viewBox="0 0 185.595 284.473">
  <g id="Group_546" data-name="Group 546" transform="translate(-1020.421 -597.846)">
    <g id="Group_545" data-name="Group 545">
      <path id="Path_1006" data-name="Path 1006" d="M977.9,508.4h106.677c47.259,0,72.953,19.5,72.953,53.683,0,24.777-13.765,41.753-37.623,47.489v.688c28.677,6.194,43.589,23.629,43.589,52.765,0,39.918-26.382,60.106-77.083,60.106H978.359V508.4Zm108.053,88.553c22.942,0,36.706-11.929,36.706-30.512,0-19.041-13.077-28.677-37.165-28.677h-72.953v59.418h73.412Zm-.918,96.813c28.448,0,42.671-11.7,42.671-33.953,0-22.712-14.453-33.724-42.671-33.724h-72.265v67.677Z" transform="translate(42.521 159.188)" fill="#151515"/>
      <path id="Path_1008" data-name="Path 1008" d="M1031.276,478h34.871l-27.53,41.065H1010.4Z" transform="translate(84.58 119.846)" fill="#151515"/>
    </g>
  </g>
</svg>
