<svg id="Group_547" data-name="Group 547" xmlns="http://www.w3.org/2000/svg" xmlns:xlink="http://www.w3.org/1999/xlink" width="1100.813" height="105.14" viewBox="0 0 1100.813 105.14">
  <defs>
    <clipPath id="clip-path">
      <rect id="Rectangle_371" data-name="Rectangle 371" width="1100.812" height="105.14" fill="#ead2ab"/>
    </clipPath>
  </defs>
  <path id="Path_1402" data-name="Path 1402" d="M71.539,1.82l-27.16,47.6-26.6-47.6H0L35.979,63.7v39.619H51.94V63.979L89.179,1.82Z" fill="#ead2ab"/>
  <g id="Group_546" data-name="Group 546">
    <g id="Group_545" data-name="Group 545" clip-path="url(#clip-path)">
      <path id="Path_1403" data-name="Path 1403" d="M85.821,52.5c0-30.94,18.48-52.5,48.02-52.5,29.4,0,47.88,21.56,47.88,52.5s-18.48,52.64-47.88,52.64c-29.54,0-48.02-21.7-48.02-52.64m79.52,0c0-25.48-13.86-39.2-31.5-39.2-17.78,0-31.64,13.72-31.64,39.2s13.86,39.34,31.64,39.34c17.64,0,31.5-13.861,31.5-39.34" fill="#ead2ab"/>
      <path id="Path_1404" data-name="Path 1404" d="M211.26,62.72c0,19.18,6.02,28.979,25.06,28.979s25.2-10.78,25.2-30.1V1.82h15.959V60.76c0,30.8-11.619,44.38-41.159,44.38-28.7,0-41.02-11.481-41.02-43.54V1.82h15.96Z" fill="#ead2ab"/>
      <path id="Path_1405" data-name="Path 1405" d="M423.078,1.82h16.8l-24.5,101.5H396.2l-18.34-80.779L359.8,103.32H340.619L315.7,1.82h17.5l17.92,82.04,17.5-82.04h18.619L406,83.86Z" fill="#ead2ab"/>
      <path id="Path_1406" data-name="Path 1406" d="M488.037,1.819l38.22,101.5H508.9l-7.98-22.26h-44.1l-7.84,22.26h-16.24L470.4,1.819Zm7.98,65.8L478.657,19.18l-17.08,48.439Z" fill="#ead2ab"/>
      <path id="Path_1407" data-name="Path 1407" d="M550.337,19.32v84h-15.68V1.82h22.26l44.8,83.86V1.82H617.4v101.5h-22.26Z" fill="#ead2ab"/>
      <path id="Path_1408" data-name="Path 1408" d="M652.676,19.32v84H636.995V1.82h22.261l44.8,83.86V1.82h15.681v101.5H697.475Z" fill="#ead2ab"/>
      <path id="Path_1409" data-name="Path 1409" d="M783.434,1.819l38.219,101.5h-17.36l-7.98-22.26h-44.1l-7.84,22.26h-16.24l37.66-101.5Zm7.979,65.8L774.054,19.18l-17.08,48.439Z" fill="#ead2ab"/>
      <path id="Path_1410" data-name="Path 1410" d="M856.373,28.14c0-19.18,20.021-28.14,37.1-28.14,18.619,0,34.719,8.54,38.639,28.98h-15.4c-3.22-12.04-14.279-15.68-23.94-15.68-7.42,0-20.16,3.5-20.16,14.14,0,8.4,6.72,12.74,15.4,14.56l12.04,2.52c16.239,3.36,34.019,9.52,34.019,29.96,0,20.16-19.32,30.66-39.059,30.66-23.521,0-39.34-13.021-41.721-34.3h15.681c2.939,13.86,12.319,21,26.6,21,13.16,0,22.4-6.3,22.4-16.1,0-10.5-10.08-14.7-21-16.94l-12.46-2.52c-14.42-2.94-28.141-11.06-28.141-28.14" fill="#ead2ab"/>
      <path id="Path_1411" data-name="Path 1411" d="M1017.652,1.82V15.4H963.333V44.381h51.239V57.82H963.333V89.74h54.319v13.58H947.373V1.82Z" fill="#ead2ab"/>
      <path id="Path_1412" data-name="Path 1412" d="M1100.812,1.82V15.4h-54.319V44.381h51.239V57.82h-51.239V89.74h54.319v13.58h-70.279V1.82Z" fill="#ead2ab"/>
    </g>
  </g>
</svg>
