<svg id="Group_546" data-name="Group 546" xmlns="http://www.w3.org/2000/svg" xmlns:xlink="http://www.w3.org/1999/xlink" width="1405.309" height="105.14" viewBox="0 0 1405.309 105.14">
  <defs>
    <clipPath id="clip-path">
      <rect id="Rectangle_372" data-name="Rectangle 372" width="1405.309" height="105.14" fill="#ead2ab"/>
    </clipPath>
  </defs>
  <g id="Group_545" data-name="Group 545" clip-path="url(#clip-path)">
    <path id="Path_1402" data-name="Path 1402" d="M83.72,52.5c0,39.2-23.8,50.819-56,50.819H0V1.82H27.72c32.2,0,56,11.62,56,50.681M15.96,14.98V90.16H27.02c20.3,0,40.18-4.2,40.18-37.659C67.2,19.18,47.319,14.98,27.02,14.98Z" fill="#ead2ab"/>
    <path id="Path_1403" data-name="Path 1403" d="M168.978,1.82V15.4h-54.32V44.381H165.9V57.82h-51.24V89.74h54.32v13.58H98.7V1.82Z" fill="#ead2ab"/>
    <path id="Path_1404" data-name="Path 1404" d="M178.218,28.14c0-19.18,20.02-28.14,37.1-28.14,18.62,0,34.72,8.54,38.64,28.98h-15.4c-3.22-12.04-14.28-15.68-23.94-15.68-7.42,0-20.16,3.5-20.16,14.14,0,8.4,6.72,12.74,15.4,14.56l12.04,2.52c16.239,3.36,34.02,9.52,34.02,29.96,0,20.16-19.32,30.66-39.06,30.66-23.52,0-39.34-13.021-41.72-34.3h15.68c2.94,13.86,12.32,21,26.6,21,13.16,0,22.4-6.3,22.4-16.1,0-10.5-10.08-14.7-21-16.94l-12.46-2.52c-14.42-2.94-28.14-11.06-28.14-28.14" fill="#ead2ab"/>
    <rect id="Rectangle_371" data-name="Rectangle 371" width="15.96" height="101.5" transform="translate(269.218 1.82)" fill="#ead2ab"/>
    <path id="Path_1405" data-name="Path 1405" d="M375.2,32.62c-3.36-11.9-12.74-19.32-27.58-19.32-17.64,0-30.94,13.3-30.94,39.059,0,25.061,12.46,39.481,30.8,39.481,12.88,0,28.7-5.46,28.7-25.061v-2.24h-26.46V50.96h41.3v52.359h-12.46l-.7-12.46c-6.3,9.661-17.78,14.281-31.5,14.281-29.12,0-46.06-21.561-46.06-52.781C300.3,20.859,318.916,0,348.176,0,370.016,0,386.4,12.04,390.6,32.62Z" fill="#ead2ab"/>
    <path id="Path_1406" data-name="Path 1406" d="M425.036,19.32v84h-15.68V1.82h22.26l44.8,83.86V1.82H492.1v101.5h-22.26Z" fill="#ead2ab"/>
    <path id="Path_1407" data-name="Path 1407" d="M530.733,15.4V1.82h81.06V15.4h-32.48v87.92h-15.96V15.4Z" fill="#ead2ab"/>
    <path id="Path_1408" data-name="Path 1408" d="M703.352,103.32h-15.96V57.82h-50.96v45.5h-15.96V1.82h15.96V44.381h50.96V1.82h15.96Z" fill="#ead2ab"/>
    <path id="Path_1409" data-name="Path 1409" d="M793.233,1.82V15.4H738.914V44.381h51.239V57.82H738.914V89.74h54.319v13.58h-70.28V1.82Z" fill="#ead2ab"/>
    <path id="Path_1410" data-name="Path 1410" d="M878.072,105.14c-29.4,0-46.48-21.561-46.48-52.78C831.592,20.58,849.931,0,879.051,0c21.7,0,38.22,12.6,42.42,34.86h-15.4c-3.079-13.16-12.88-21.56-27.72-21.56-17.08,0-30.38,13.58-30.38,39.06,0,25.06,12.88,39.48,30.521,39.48,14.979,0,24.92-8.12,28-21.56h15.4c-4.34,22.54-21.28,34.86-43.819,34.86" fill="#ead2ab"/>
    <path id="Path_1411" data-name="Path 1411" d="M1017.791,103.32h-15.959V57.82h-50.96v45.5h-15.96V1.82h15.96V44.381h50.96V1.82h15.959Z" fill="#ead2ab"/>
    <path id="Path_1412" data-name="Path 1412" d="M1081.492,1.819l38.219,101.5h-17.36l-7.98-22.26h-44.1l-7.84,22.26h-16.24l37.66-101.5Zm7.979,65.8L1072.112,19.18l-17.08,48.439Z" fill="#ead2ab"/>
    <path id="Path_1413" data-name="Path 1413" d="M1143.792,19.32v84h-15.68V1.82h22.26l44.8,83.86V1.82h15.68v101.5h-22.26Z" fill="#ead2ab"/>
    <path id="Path_1414" data-name="Path 1414" d="M1300.871,32.62c-3.36-11.9-12.74-19.32-27.58-19.32-17.641,0-30.941,13.3-30.941,39.059,0,25.061,12.46,39.481,30.8,39.481,12.88,0,28.7-5.46,28.7-25.061v-2.24h-26.459V50.96h41.3v52.359h-12.46l-.7-12.46c-6.3,9.661-17.779,14.281-31.5,14.281-29.119,0-46.059-21.561-46.059-52.781,0-31.5,18.62-52.358,47.879-52.358,21.84,0,38.22,12.039,42.42,32.619Z" fill="#ead2ab"/>
    <path id="Path_1415" data-name="Path 1415" d="M1405.309,1.82V15.4H1350.99V44.381h51.239V57.82H1350.99V89.74h54.319v13.58H1335.03V1.82Z" fill="#ead2ab"/>
  </g>
</svg>
